<?xml version="1.0" encoding="utf-8"?>
<!-- Generator: Adobe Illustrator 23.1.1, SVG Export Plug-In . SVG Version: 6.00 Build 0)  -->
<svg version="1.1" id="Layer_1" xmlns="http://www.w3.org/2000/svg" xmlns:xlink="http://www.w3.org/1999/xlink" x="0px" y="0px"
	 viewBox="40 40 280 280" style="enable-background:new 40 40 280 280;" xml:space="preserve">
<style type="text/css">
	.st0{fill:#FAA819;}
	.st1{fill:#FDB84C;}
	.st2{fill:#FFFFFF;}
</style>
<g>
	<path class="st0" d="M253.94,140.99c-2.17,0-4.27-1.18-5.33-3.24c-1.52-2.94-0.37-6.56,2.57-8.08l36.9-19.09L180,48.17
		l-108.08,62.4l36.9,19.09c2.94,1.52,4.09,5.14,2.57,8.08c-1.07,2.06-3.16,3.24-5.33,3.24c-0.93,0-1.87-0.22-2.75-0.67l-37.48-19.39
		v124.99L174,308.37v-65.42c0-3.31,2.69-6,6-6s6,2.69,6,6v65.42l108.17-62.45V120.92l-37.48,19.39
		C255.81,140.77,254.87,140.99,253.94,140.99z M147,214.42h-9.16c-3.21,0-5.82-2.61-5.82-5.82c0-3.21,2.61-5.82,5.82-5.82H147
		c3.21,0,5.82,2.61,5.82,5.82C152.81,211.81,150.2,214.42,147,214.42z M147,185.51h-9.16c-3.21,0-5.82-2.61-5.82-5.82
		c0-3.21,2.61-5.82,5.82-5.82H147c3.21,0,5.82,2.61,5.82,5.82C152.81,182.9,150.2,185.51,147,185.51z M147,156.6h-9.16
		c-3.21,0-5.82-2.61-5.82-5.82c0-3.21,2.61-5.82,5.82-5.82H147c3.21,0,5.82,2.61,5.82,5.82C152.81,153.99,150.2,156.6,147,156.6z
		 M222.16,214.42H168.2c-3.21,0-5.82-2.61-5.82-5.82c0-3.21,2.61-5.82,5.82-5.82h53.96c3.21,0,5.82,2.61,5.82,5.82
		C227.98,211.81,225.37,214.42,222.16,214.42z M222.16,185.51H168.2c-3.21,0-5.82-2.61-5.82-5.82c0-3.21,2.61-5.82,5.82-5.82h53.96
		c3.21,0,5.82,2.61,5.82,5.82C227.98,182.9,225.37,185.51,222.16,185.51z M222.16,156.6H168.2c-3.21,0-5.82-2.61-5.82-5.82
		c0-3.21,2.61-5.82,5.82-5.82h53.96c3.21,0,5.82,2.61,5.82,5.82C227.98,153.99,225.37,156.6,222.16,156.6z"/>
	<path class="st1" d="M180,236.95c-3.31,0-6,2.69-6,6v65.42l6,3.46l6-3.46v-65.42C186,239.64,183.31,236.95,180,236.95z"/>
	<path class="st1" d="M106.06,140.99c2.17,0,4.27-1.18,5.33-3.24c1.52-2.94,0.37-6.56-2.57-8.08l-36.9-19.09l-6.09,3.52v6.84
		l37.48,19.39C104.19,140.77,105.13,140.99,106.06,140.99z"/>
	<path class="st1" d="M288.08,110.57l-36.9,19.09c-2.94,1.52-4.09,5.14-2.57,8.08c1.07,2.06,3.16,3.24,5.33,3.24
		c0.93,0,1.87-0.22,2.75-0.67l37.48-19.39v-6.84L288.08,110.57z"/>
	<path class="st2" d="M222.16,173.87H168.2c-3.21,0-5.82,2.61-5.82,5.82c0,3.21,2.61,5.82,5.82,5.82h53.96
		c3.21,0,5.82-2.61,5.82-5.82C227.98,176.48,225.37,173.87,222.16,173.87z"/>
	<path class="st2" d="M222.16,202.78H168.2c-3.21,0-5.82,2.61-5.82,5.82c0,3.21,2.61,5.82,5.82,5.82h53.96
		c3.21,0,5.82-2.61,5.82-5.82C227.98,205.39,225.37,202.78,222.16,202.78z"/>
	<path class="st2" d="M147,173.87h-9.16c-3.21,0-5.82,2.61-5.82,5.82c0,3.21,2.61,5.82,5.82,5.82H147c3.21,0,5.82-2.61,5.82-5.82
		C152.81,176.48,150.2,173.87,147,173.87z"/>
	<path class="st2" d="M147,202.78h-9.16c-3.21,0-5.82,2.61-5.82,5.82c0,3.21,2.61,5.82,5.82,5.82H147c3.21,0,5.82-2.61,5.82-5.82
		C152.81,205.39,150.2,202.78,147,202.78z"/>
	<path class="st2" d="M222.16,144.96H168.2c-3.21,0-5.82,2.61-5.82,5.82c0,3.21,2.61,5.82,5.82,5.82h53.96
		c3.21,0,5.82-2.61,5.82-5.82C227.98,147.57,225.37,144.96,222.16,144.96z"/>
	<path class="st2" d="M147,144.96h-9.16c-3.21,0-5.82,2.61-5.82,5.82c0,3.21,2.61,5.82,5.82,5.82H147c3.21,0,5.82-2.61,5.82-5.82
		C152.81,147.57,150.2,144.96,147,144.96z"/>
</g>
</svg>
