<?xml version="1.0" encoding="utf-8"?>
<!-- Generator: Adobe Illustrator 23.1.1, SVG Export Plug-In . SVG Version: 6.00 Build 0)  -->
<svg version="1.1" id="Layer_1" xmlns="http://www.w3.org/2000/svg" xmlns:xlink="http://www.w3.org/1999/xlink" x="0px" y="0px"
	 viewBox="98 98 166 166" style="enable-background:new 98 98 166 166;" xml:space="preserve">
<style type="text/css">
	.st0{fill:#FAA819;}
</style>
<g>
	<path class="st0" d="M243.25,171.52h-80.96c-4.68,0-8.48,3.8-8.48,8.48c0,4.68,3.8,8.48,8.48,8.48h80.96c4.68,0,8.48-3.8,8.48-8.48
		C251.73,175.33,247.92,171.52,243.25,171.52z"/>
	<path class="st0" d="M243.25,214.89h-80.96c-4.68,0-8.48,3.8-8.48,8.48s3.8,8.48,8.48,8.48h80.96c4.68,0,8.48-3.8,8.48-8.48
		S247.92,214.89,243.25,214.89z"/>
	<path class="st0" d="M130.48,171.52h-13.73c-4.68,0-8.48,3.8-8.48,8.48c0,4.68,3.8,8.48,8.48,8.48h13.73c4.68,0,8.48-3.8,8.48-8.48
		C138.96,175.33,135.16,171.52,130.48,171.52z"/>
	<path class="st0" d="M130.48,214.89h-13.73c-4.68,0-8.48,3.8-8.48,8.48s3.8,8.48,8.48,8.48h13.73c4.68,0,8.48-3.8,8.48-8.48
		S135.16,214.89,130.48,214.89z"/>
	<path class="st0" d="M162.29,145.11h80.96c4.68,0,8.48-3.8,8.48-8.48s-3.8-8.48-8.48-8.48h-80.96c-4.68,0-8.48,3.8-8.48,8.48
		S157.62,145.11,162.29,145.11z"/>
	<path class="st0" d="M130.48,128.15h-13.73c-4.68,0-8.48,3.8-8.48,8.48s3.8,8.48,8.48,8.48h13.73c4.68,0,8.48-3.8,8.48-8.48
		S135.16,128.15,130.48,128.15z"/>
</g>
</svg>
